<svg width="18" height="10" viewBox="0 0 18 10" fill="none" xmlns="http://www.w3.org/2000/svg">
<path d="M17.076 1.53063L9.57596 9.03063C9.50631 9.10036 9.42359 9.15568 9.33254 9.19343C9.2415 9.23117 9.1439 9.25059 9.04534 9.25059C8.94678 9.25059 8.84918 9.23117 8.75813 9.19343C8.66709 9.15568 8.58437 9.10036 8.51471 9.03063L1.01471 1.53063C0.873983 1.3899 0.794922 1.19903 0.794922 1.00001C0.794922 0.800982 0.873983 0.61011 1.01471 0.46938C1.15544 0.328649 1.34632 0.249588 1.54534 0.249588C1.74436 0.249588 1.93523 0.328649 2.07596 0.46938L9.04534 7.43969L16.0147 0.46938C16.0844 0.399697 16.1671 0.344422 16.2582 0.30671C16.3492 0.268998 16.4468 0.249588 16.5453 0.249588C16.6439 0.249588 16.7415 0.268998 16.8325 0.30671C16.9236 0.344422 17.0063 0.399697 17.076 0.46938C17.1456 0.539062 17.2009 0.621788 17.2386 0.712833C17.2763 0.803877 17.2958 0.901459 17.2958 1.00001C17.2958 1.09855 17.2763 1.19613 17.2386 1.28718C17.2009 1.37822 17.1456 1.46095 17.076 1.53063Z" fill="white"/>
</svg>
