<svg width="22" height="20" viewBox="0 0 22 20" fill="none" xmlns="http://www.w3.org/2000/svg">
<path d="M11.7501 10.25V15.5C11.7501 15.6989 11.671 15.8897 11.5304 16.0303C11.3897 16.171 11.199 16.25 11.0001 16.25C10.8011 16.25 10.6104 16.171 10.4697 16.0303C10.3291 15.8897 10.2501 15.6989 10.2501 15.5V10.25C10.2501 10.0511 10.3291 9.86032 10.4697 9.71967C10.6104 9.57902 10.8011 9.5 11.0001 9.5C11.199 9.5 11.3897 9.57902 11.5304 9.71967C11.671 9.86032 11.7501 10.0511 11.7501 10.25ZM21.4869 8.19781L20.1876 17.9487C20.1394 18.3091 19.962 18.6397 19.6883 18.8791C19.4146 19.1184 19.0633 19.2502 18.6997 19.25H3.30037C2.9368 19.2502 2.5855 19.1184 2.31183 18.8791C2.03816 18.6397 1.86074 18.3091 1.81256 17.9487L0.512249 8.19875C0.483913 7.98678 0.50123 7.7712 0.563039 7.56647C0.624848 7.36174 0.729721 7.17259 0.870622 7.01171C1.01152 6.85083 1.1852 6.72194 1.37999 6.63369C1.57479 6.54543 1.7862 6.49985 2.00006 6.5H5.40975L10.4376 0.755936C10.5079 0.676131 10.5945 0.612215 10.6915 0.568436C10.7885 0.524656 10.8937 0.502014 11.0001 0.502014C11.1065 0.502014 11.2117 0.524656 11.3086 0.568436C11.4056 0.612215 11.4922 0.676131 11.5626 0.755936L16.5904 6.5H20.0001C20.2137 6.50014 20.4248 6.54589 20.6193 6.63421C20.8138 6.72253 20.9872 6.85137 21.1278 7.01211C21.2685 7.17285 21.3733 7.36178 21.435 7.56627C21.4968 7.77075 21.5142 7.98607 21.486 8.19781H21.4869ZM7.40287 6.5H14.5972L11.0001 2.38906L7.40287 6.5ZM20.0001 8H2.00006L3.30037 17.75H18.6997L20.0001 8ZM15.2038 10.175L14.6788 15.425C14.6684 15.5233 14.6776 15.6227 14.7058 15.7174C14.7339 15.8122 14.7805 15.9004 14.8429 15.9771C14.9053 16.0537 14.9822 16.1173 15.0692 16.1642C15.1563 16.211 15.2517 16.2402 15.3501 16.25C15.3754 16.2514 15.4007 16.2514 15.426 16.25C15.6118 16.2498 15.7908 16.1806 15.9285 16.0559C16.0662 15.9312 16.1527 15.7598 16.1713 15.575L16.6963 10.325C16.7162 10.1271 16.6567 9.92937 16.5308 9.77535C16.4049 9.62134 16.223 9.52364 16.0251 9.50375C15.8271 9.48386 15.6294 9.5434 15.4754 9.66929C15.3214 9.79517 15.2237 9.97708 15.2038 10.175ZM6.79631 10.175C6.77642 9.97708 6.67872 9.79517 6.52471 9.66929C6.37069 9.5434 6.17298 9.48386 5.97506 9.50375C5.77714 9.52364 5.59523 9.62134 5.46935 9.77535C5.34347 9.92937 5.28392 10.1271 5.30381 10.325L5.82881 15.575C5.84747 15.7606 5.93465 15.9327 6.07333 16.0575C6.21201 16.1823 6.39224 16.2509 6.57881 16.25C6.6041 16.2514 6.62946 16.2514 6.65475 16.25C6.75275 16.2402 6.84785 16.2111 6.93462 16.1645C7.02139 16.1179 7.09813 16.0547 7.16046 15.9784C7.2228 15.9021 7.2695 15.8143 7.2979 15.72C7.3263 15.6257 7.33585 15.5267 7.326 15.4287L6.79631 10.175Z" fill="white"/>
</svg>
