<svg width="18" height="18" viewBox="0 0 18 18" fill="none" xmlns="http://www.w3.org/2000/svg">
<path d="M15.641 7.58536C15.6622 5.10398 13.5487 2.8292 10.9299 2.51464C10.8778 2.50847 10.8211 2.49907 10.761 2.48912C10.6313 2.46764 10.4973 2.44556 10.362 2.44556C9.82525 2.44556 9.68177 2.82259 9.644 3.04745C9.60727 3.26609 9.64231 3.44969 9.74796 3.59338C9.92571 3.83508 10.2385 3.87799 10.4897 3.91237C10.5633 3.92254 10.6328 3.93199 10.6909 3.94505C13.0439 4.47081 13.8361 5.29741 14.2233 7.63034C14.2328 7.68735 14.2371 7.75759 14.2416 7.83209C14.2585 8.11095 14.2937 8.69115 14.9174 8.69115H14.9175C14.9694 8.69115 15.0252 8.68667 15.0833 8.67781C15.6642 8.58954 15.646 8.05919 15.6372 7.80437C15.6348 7.73261 15.6324 7.66472 15.6385 7.61957C15.6401 7.6082 15.641 7.59678 15.641 7.58536Z" fill="#1D2123"/>
<path d="M10.2092 1.60353C10.2789 1.60856 10.3448 1.61337 10.3998 1.62178C14.2635 2.21597 16.0404 4.04659 16.5328 7.94057C16.5412 8.00676 16.5425 8.08749 16.5438 8.17297C16.5488 8.4772 16.5589 9.11009 17.2386 9.12321L17.2597 9.12343C17.4728 9.12343 17.6424 9.05915 17.7637 8.93223C17.9752 8.71092 17.9605 8.38215 17.9486 8.11793C17.9457 8.05311 17.9429 7.99205 17.9436 7.9386C17.9927 3.95608 14.5454 0.344745 10.5665 0.210449C10.55 0.209903 10.5342 0.210777 10.5183 0.213018C10.5027 0.214988 10.4869 0.215846 10.4712 0.215587C10.4315 0.215587 10.3827 0.212144 10.3309 0.208645C10.2684 0.204382 10.1974 0.199463 10.1255 0.199463C9.49183 0.199463 9.37136 0.649848 9.35594 0.91833C9.32042 1.53881 9.92067 1.58248 10.2092 1.60353ZM16.3464 12.9733C16.2634 12.9104 16.1811 12.8465 16.0997 12.7815C15.6779 12.4421 15.2291 12.1291 14.7951 11.8265C14.705 11.7638 14.615 11.701 14.5252 11.638C13.9692 11.2475 13.4693 11.0577 12.9971 11.0577C12.361 11.0577 11.8064 11.4091 11.3487 12.1021C11.146 12.4094 10.8999 12.5588 10.5967 12.5588C10.4175 12.5588 10.2138 12.5076 9.99135 12.4066C8.19675 11.5928 6.91528 10.3451 6.18248 8.69808C5.82824 7.90203 5.94307 7.38168 6.56651 6.95819C6.92053 6.71791 7.57949 6.27059 7.53281 5.41398C7.47996 4.44123 5.33363 1.51432 4.42931 1.18189C4.04643 1.04109 3.64414 1.03978 3.23147 1.17861C2.19187 1.5281 1.44584 2.14186 1.07383 2.95343C0.714345 3.73761 0.730578 4.65838 1.12078 5.61622C2.24882 8.38554 3.83479 10.8 5.8348 12.7925C7.79244 14.7429 10.1986 16.3406 12.9862 17.5409C13.2375 17.649 13.5011 17.708 13.6935 17.751C13.7591 17.7658 13.8157 17.7784 13.857 17.7897C13.8797 17.7959 13.9031 17.7992 13.9265 17.7994L13.9486 17.7995H13.9487C15.2598 17.7995 16.8341 16.6014 17.3176 15.2355C17.7413 14.0395 16.9678 13.4483 16.3464 12.9733ZM10.7891 4.76694C10.5646 4.77262 10.0974 4.78421 9.93352 5.26001C9.85683 5.48236 9.86602 5.67541 9.96085 5.83381C10.1 6.06622 10.3666 6.13744 10.6092 6.17652C11.4887 6.31765 11.9404 6.804 12.0307 7.70695C12.0727 8.12799 12.3562 8.422 12.7202 8.422C12.7471 8.422 12.7747 8.42041 12.802 8.41708C13.2399 8.36499 13.4521 8.04332 13.4329 7.4611C13.4399 6.85346 13.1219 6.16362 12.5811 5.61414C12.0384 5.06297 11.3842 4.75256 10.7891 4.76694Z" fill="#1D2123"/>
</svg>
