<svg width="20" height="20" viewBox="0 0 20 20" fill="none" xmlns="http://www.w3.org/2000/svg">
<g clip-path="url(#clip0_247_254)">
<path d="M9.69009 2.44872C12.2551 2.44872 12.5588 2.45997 13.5676 2.50497C14.5051 2.54622 15.0113 2.70372 15.3488 2.83497C15.7951 3.00747 16.1176 3.21747 16.4513 3.55122C16.7888 3.88872 16.9951 4.20747 17.1676 4.65372C17.2988 4.99122 17.4563 5.50122 17.4976 6.43497C17.5426 7.44747 17.5538 7.75122 17.5538 10.3125C17.5538 12.8775 17.5426 13.1812 17.4976 14.19C17.4563 15.1275 17.2988 15.6337 17.1676 15.9712C16.9951 16.4175 16.7851 16.74 16.4513 17.0737C16.1138 17.4112 15.7951 17.6175 15.3488 17.79C15.0113 17.9212 14.5013 18.0787 13.5676 18.12C12.5551 18.165 12.2513 18.1762 9.69009 18.1762C7.12509 18.1762 6.82134 18.165 5.81259 18.12C4.87509 18.0787 4.36884 17.9212 4.03134 17.79C3.58509 17.6175 3.26259 17.4075 2.92884 17.0737C2.59134 16.7362 2.38509 16.4175 2.21259 15.9712C2.08134 15.6337 1.92384 15.1237 1.88259 14.19C1.83759 13.1775 1.82634 12.8737 1.82634 10.3125C1.82634 7.74747 1.83759 7.44372 1.88259 6.43497C1.92384 5.49747 2.08134 4.99122 2.21259 4.65372C2.38509 4.20747 2.59509 3.88497 2.92884 3.55122C3.26634 3.21372 3.58509 3.00747 4.03134 2.83497C4.36884 2.70372 4.87884 2.54622 5.81259 2.50497C6.82134 2.45997 7.12509 2.44872 9.69009 2.44872ZM9.69009 0.719971C7.08384 0.719971 6.75759 0.731221 5.73384 0.776221C4.71384 0.821221 4.01259 0.986221 3.40509 1.22247C2.77134 1.46997 2.23509 1.79622 1.70259 2.33247C1.16634 2.86497 0.840088 3.40122 0.592588 4.03122C0.356338 4.64247 0.191338 5.33997 0.146338 6.35997C0.101338 7.38747 0.0900879 7.71372 0.0900879 10.32C0.0900879 12.9262 0.101338 13.2525 0.146338 14.2762C0.191338 15.2962 0.356338 15.9975 0.592588 16.605C0.840088 17.2387 1.16634 17.775 1.70259 18.3075C2.23509 18.84 2.77134 19.17 3.40134 19.4137C4.01259 19.65 4.71009 19.815 5.73009 19.86C6.75384 19.905 7.08009 19.9162 9.68634 19.9162C12.2926 19.9162 12.6188 19.905 13.6426 19.86C14.6626 19.815 15.3638 19.65 15.9713 19.4137C16.6013 19.17 17.1376 18.84 17.6701 18.3075C18.2026 17.775 18.5326 17.2387 18.7763 16.6087C19.0126 15.9975 19.1776 15.3 19.2226 14.28C19.2676 13.2562 19.2788 12.93 19.2788 10.3237C19.2788 7.71747 19.2676 7.39122 19.2226 6.36747C19.1776 5.34747 19.0126 4.64622 18.7763 4.03872C18.5401 3.40122 18.2138 2.86497 17.6776 2.33247C17.1451 1.79997 16.6088 1.46997 15.9788 1.22622C15.3676 0.989971 14.6701 0.824971 13.6501 0.779971C12.6226 0.731221 12.2963 0.719971 9.69009 0.719971Z" fill="#1D2123"/>
<path d="M9.69004 5.38867C6.96754 5.38867 4.75879 7.59742 4.75879 10.3199C4.75879 13.0424 6.96754 15.2512 9.69004 15.2512C12.4125 15.2512 14.6213 13.0424 14.6213 10.3199C14.6213 7.59742 12.4125 5.38867 9.69004 5.38867ZM9.69004 13.5187C7.92379 13.5187 6.49129 12.0862 6.49129 10.3199C6.49129 8.55367 7.92379 7.12117 9.69004 7.12117C11.4563 7.12117 12.8888 8.55367 12.8888 10.3199C12.8888 12.0862 11.4563 13.5187 9.69004 13.5187Z" fill="#1D2123"/>
<path d="M15.9675 5.19373C15.9675 5.83123 15.45 6.34498 14.8163 6.34498C14.1788 6.34498 13.665 5.82748 13.665 5.19373C13.665 4.55623 14.1825 4.04248 14.8163 4.04248C15.45 4.04248 15.9675 4.55998 15.9675 5.19373Z" fill="#1D2123"/>
</g>
<defs>
<clipPath id="clip0_247_254">
<rect width="19.2" height="19.2" fill="white" transform="translate(0.0900879 0.719971)"/>
</clipPath>
</defs>
</svg>
