<svg width="25" height="25" viewBox="0 0 25 25" fill="none" xmlns="http://www.w3.org/2000/svg">
<g clip-path="url(#clip0_30_15455)">
<path d="M12.8813 2.56084C16.0876 2.56084 16.4673 2.5749 17.7282 2.63115C18.9001 2.68271 19.5329 2.87959 19.9548 3.04365C20.5126 3.25928 20.9157 3.52178 21.3329 3.93896C21.7548 4.36084 22.0126 4.75928 22.2282 5.31709C22.3923 5.73897 22.5892 6.37646 22.6407 7.54365C22.697 8.80928 22.711 9.18896 22.711 12.3905C22.711 15.5968 22.697 15.9765 22.6407 17.2374C22.5892 18.4093 22.3923 19.0421 22.2282 19.464C22.0126 20.0218 21.7501 20.4249 21.3329 20.8421C20.911 21.264 20.5126 21.5218 19.9548 21.7374C19.5329 21.9015 18.8954 22.0983 17.7282 22.1499C16.4626 22.2062 16.0829 22.2202 12.8813 22.2202C9.6751 22.2202 9.29541 22.2062 8.03447 22.1499C6.8626 22.0983 6.22979 21.9015 5.80791 21.7374C5.2501 21.5218 4.84697 21.2593 4.42979 20.8421C4.00791 20.4202 3.7501 20.0218 3.53447 19.464C3.37041 19.0421 3.17354 18.4046 3.12197 17.2374C3.06572 15.9718 3.05166 15.5921 3.05166 12.3905C3.05166 9.18428 3.06572 8.80459 3.12197 7.54365C3.17354 6.37178 3.37041 5.73897 3.53447 5.31709C3.7501 4.75928 4.0126 4.35615 4.42979 3.93896C4.85166 3.51709 5.2501 3.25928 5.80791 3.04365C6.22979 2.87959 6.86729 2.68271 8.03447 2.63115C9.29541 2.5749 9.6751 2.56084 12.8813 2.56084ZM12.8813 0.399902C9.62354 0.399902 9.21572 0.413965 7.93604 0.470215C6.66104 0.526465 5.78447 0.732715 5.0251 1.02803C4.23291 1.3374 3.5626 1.74521 2.89697 2.41553C2.22666 3.08115 1.81885 3.75147 1.50947 4.53897C1.21416 5.30303 1.00791 6.1749 0.95166 7.4499C0.89541 8.73428 0.881348 9.14209 0.881348 12.3999C0.881348 15.6577 0.89541 16.0655 0.95166 17.3452C1.00791 18.6202 1.21416 19.4968 1.50947 20.2562C1.81885 21.0483 2.22666 21.7187 2.89697 22.3843C3.5626 23.0499 4.23291 23.4624 5.02041 23.7671C5.78447 24.0624 6.65635 24.2687 7.93135 24.3249C9.21104 24.3812 9.61885 24.3952 12.8767 24.3952C16.1345 24.3952 16.5423 24.3812 17.822 24.3249C19.097 24.2687 19.9735 24.0624 20.7329 23.7671C21.5204 23.4624 22.1907 23.0499 22.8563 22.3843C23.522 21.7187 23.9345 21.0483 24.2392 20.2608C24.5345 19.4968 24.7407 18.6249 24.797 17.3499C24.8532 16.0702 24.8673 15.6624 24.8673 12.4046C24.8673 9.14678 24.8532 8.73897 24.797 7.45928C24.7407 6.18428 24.5345 5.30771 24.2392 4.54834C23.9438 3.75146 23.536 3.08115 22.8657 2.41553C22.2001 1.7499 21.5298 1.3374 20.7423 1.03271C19.9782 0.737402 19.1063 0.531152 17.8313 0.474902C16.547 0.413965 16.1392 0.399902 12.8813 0.399902Z" fill="#343739"/>
<path d="M12.8813 6.23584C9.47822 6.23584 6.71729 8.99678 6.71729 12.3999C6.71729 15.803 9.47822 18.564 12.8813 18.564C16.2845 18.564 19.0454 15.803 19.0454 12.3999C19.0454 8.99678 16.2845 6.23584 12.8813 6.23584ZM12.8813 16.3983C10.6735 16.3983 8.88291 14.6077 8.88291 12.3999C8.88291 10.1921 10.6735 8.40146 12.8813 8.40146C15.0892 8.40146 16.8798 10.1921 16.8798 12.3999C16.8798 14.6077 15.0892 16.3983 12.8813 16.3983Z" fill="#343739"/>
<path d="M20.7282 5.99204C20.7282 6.78892 20.0813 7.43111 19.2892 7.43111C18.4923 7.43111 17.8501 6.78423 17.8501 5.99204C17.8501 5.19517 18.497 4.55298 19.2892 4.55298C20.0813 4.55298 20.7282 5.19985 20.7282 5.99204Z" fill="#343739"/>
</g>
<defs>
<clipPath id="clip0_30_15455">
<rect width="24" height="24" fill="white" transform="translate(0.881348 0.399902)"/>
</clipPath>
</defs>
</svg>
