<svg width="20" height="20" viewBox="0 0 20 20" fill="none" xmlns="http://www.w3.org/2000/svg">
<path d="M19.5318 18.4691L14.8378 13.776C16.1983 12.1426 16.8767 10.0475 16.7319 7.92666C16.5871 5.8058 15.6302 3.8224 14.0603 2.38907C12.4904 0.955745 10.4284 0.182839 8.3031 0.231139C6.17785 0.279439 4.15303 1.14523 2.64986 2.6484C1.14669 4.15157 0.280903 6.17638 0.232603 8.30164C0.184304 10.4269 0.95721 12.489 2.39054 14.0589C3.82387 15.6288 5.80726 16.5856 7.92813 16.7304C10.049 16.8752 12.144 16.1968 13.7774 14.8363L18.4706 19.5304C18.5403 19.6 18.623 19.6553 18.714 19.693C18.8051 19.7307 18.9026 19.7501 19.0012 19.7501C19.0997 19.7501 19.1973 19.7307 19.2884 19.693C19.3794 19.6553 19.4621 19.6 19.5318 19.5304C19.6015 19.4607 19.6568 19.3779 19.6945 19.2869C19.7322 19.1959 19.7516 19.0983 19.7516 18.9997C19.7516 18.9012 19.7322 18.8036 19.6945 18.7126C19.6568 18.6215 19.6015 18.5388 19.5318 18.4691ZM1.75119 8.49973C1.75119 7.1647 2.14707 5.85966 2.88877 4.74963C3.63047 3.63959 4.68468 2.77443 5.91808 2.26354C7.15148 1.75265 8.50868 1.61897 9.81805 1.87943C11.1274 2.13988 12.3302 2.78275 13.2742 3.72675C14.2182 4.67076 14.861 5.87349 15.1215 7.18287C15.3819 8.49224 15.2483 9.84944 14.7374 11.0828C14.2265 12.3162 13.3613 13.3704 12.2513 14.1121C11.1413 14.8538 9.83622 15.2497 8.50119 15.2497C6.71159 15.2477 4.99585 14.5359 3.73041 13.2705C2.46497 12.0051 1.75318 10.2893 1.75119 8.49973Z" fill="white"/>
</svg>
