<svg width="25" height="25" viewBox="0 0 25 25" fill="none" xmlns="http://www.w3.org/2000/svg">
<g clip-path="url(#clip0_30_15453)">
<path d="M17.9539 0.399902H13.9092V16.7477C13.9092 18.6956 12.3535 20.2956 10.4176 20.2956C8.48168 20.2956 6.92603 18.6956 6.92603 16.7477C6.92603 14.8347 8.44711 13.2694 10.3139 13.1999V9.09556C6.20006 9.1651 2.88135 12.539 2.88135 16.7477C2.88135 20.9912 6.2692 24.3999 10.4522 24.3999C14.6351 24.3999 18.023 20.9564 18.023 16.7477V8.3651C19.5441 9.47816 21.4108 10.139 23.3813 10.1738V6.06947C20.3392 5.96512 17.9539 3.46077 17.9539 0.399902Z" fill="#343739"/>
</g>
<defs>
<clipPath id="clip0_30_15453">
<rect width="24" height="24" fill="white" transform="translate(0.881348 0.399902)"/>
</clipPath>
</defs>
</svg>
