<svg width="22" height="22" viewBox="0 0 22 22" fill="none" xmlns="http://www.w3.org/2000/svg">
<path d="M18.8198 9.23188C18.8463 6.13015 16.2045 3.28669 12.9309 2.89349C12.8658 2.88577 12.7949 2.87402 12.7198 2.86158C12.5577 2.83473 12.3901 2.80713 12.221 2.80713C11.5501 2.80713 11.3708 3.27842 11.3236 3.5595C11.2776 3.83279 11.3214 4.06229 11.4535 4.24191C11.6757 4.54404 12.0666 4.59767 12.3806 4.64064C12.4727 4.65335 12.5595 4.66517 12.6322 4.6815C15.5734 5.3387 16.5637 6.37195 17.0477 9.28811C17.0595 9.35937 17.0649 9.44717 17.0705 9.54029C17.0917 9.88887 17.1357 10.6141 17.9154 10.6141H17.9154C17.9803 10.6141 18.0501 10.6085 18.1227 10.5975C18.8488 10.4871 18.826 9.82417 18.8151 9.50565C18.812 9.41594 18.8091 9.33108 18.8167 9.27465C18.8187 9.26044 18.8197 9.24616 18.8198 9.23188Z" fill="#343739"/>
<path d="M12.0302 1.75508C12.1173 1.76137 12.1998 1.76738 12.2684 1.7779C17.0981 2.52064 19.3192 4.80891 19.9347 9.67638C19.9452 9.75912 19.9468 9.86003 19.9485 9.96689C19.9547 10.3472 19.9673 11.1383 20.8169 11.1547L20.8433 11.155C21.1098 11.155 21.3217 11.0746 21.4733 10.916C21.7378 10.6393 21.7193 10.2284 21.7045 9.89808C21.7008 9.81705 21.6973 9.74074 21.6982 9.67392C21.7597 4.69577 17.4505 0.181602 12.4768 0.0137329C12.4562 0.0130497 12.4365 0.0141429 12.4166 0.0169441C12.3971 0.0194063 12.3774 0.0204794 12.3577 0.0201553C12.3081 0.0201553 12.2471 0.0158509 12.1824 0.0114783C12.1042 0.00614907 12.0155 0 11.9256 0C11.1335 0 10.9829 0.562981 10.9637 0.898584C10.9193 1.67419 11.6696 1.72878 12.0302 1.75508ZM19.7017 15.9673C19.5979 15.8887 19.4952 15.8088 19.3934 15.7276C18.8661 15.3033 18.3051 14.9121 17.7626 14.5338C17.65 14.4554 17.5375 14.3769 17.4252 14.2982C16.7302 13.81 16.1054 13.5728 15.5151 13.5728C14.72 13.5728 14.0268 14.0121 13.4547 14.8784C13.2012 15.2624 12.8937 15.4491 12.5147 15.4491C12.2906 15.4491 12.0359 15.3852 11.7579 15.259C9.51467 14.2417 7.91284 12.682 6.99684 10.6233C6.55403 9.62821 6.69758 8.97777 7.47687 8.44841C7.9194 8.14806 8.7431 7.58891 8.68476 6.51815C8.61869 5.3022 5.93578 1.64358 4.80538 1.22804C4.32677 1.05204 3.82392 1.0504 3.30808 1.22394C2.00858 1.66079 1.07603 2.42799 0.611029 3.44245C0.161668 4.42268 0.18196 5.57365 0.669718 6.77094C2.07977 10.2326 4.06223 13.2507 6.56223 15.7413C9.00929 18.1793 12.0169 20.1764 15.5015 21.6768C15.8156 21.812 16.1451 21.8857 16.3856 21.9395C16.4676 21.9579 16.5384 21.9736 16.59 21.9878C16.6184 21.9955 16.6476 21.9997 16.6769 21.9999L16.7044 22.0001H16.7046C18.3435 22.0001 20.3114 20.5024 20.9158 18.795C21.4453 17.3 20.4785 16.561 19.7017 15.9673ZM12.7551 5.70934C12.4745 5.71645 11.8905 5.73093 11.6856 6.32568C11.5898 6.60362 11.6013 6.84494 11.7198 7.04294C11.8937 7.33345 12.227 7.42247 12.5302 7.47132C13.6296 7.64773 14.1942 8.25567 14.3071 9.38437C14.3596 9.91066 14.714 10.2782 15.169 10.2782C15.2026 10.2782 15.2371 10.2762 15.2713 10.272C15.8186 10.2069 16.0839 9.80482 16.0599 9.07705C16.0686 8.3175 15.6711 7.4552 14.9951 6.76835C14.3167 6.07938 13.4989 5.69137 12.7551 5.70934Z" fill="#343739"/>
</svg>
