<svg width="975" height="174" viewBox="0 0 975 174" fill="none" xmlns="http://www.w3.org/2000/svg">
<path d="M0 101.268C44.8603 76.4043 139.257 32.3645 157.961 55.1106C181.342 83.5433 196.169 179.18 231.525 162.933C266.881 146.686 334.171 48.8333 375.23 55.1106C416.288 61.388 419.139 182.134 472.744 172.534C526.348 162.933 498.975 58.0647 563.985 39.6019C628.994 21.1392 611.886 120.469 651.804 137.455C691.722 154.44 705.979 149.64 722.516 94.621C739.054 39.6019 781.253 -24.6484 811.477 11.5386C841.7 47.7256 817.749 102.006 863.94 123.792C910.131 145.578 944.347 52.8951 945.487 46.2485C946.4 40.9312 964.876 36.4017 974 34.8016" stroke="#FACD66" stroke-opacity="0.72" stroke-width="1.10306"/>
</svg>
